<?xml version="1.0" encoding="utf-8"?>
<!-- Generator: Adobe Illustrator 15.0.0, SVG Export Plug-In  -->
<!DOCTYPE svg PUBLIC "-//W3C//DTD SVG 1.1//EN" "http://www.w3.org/Graphics/SVG/1.1/DTD/svg11.dtd" [
	<!ENTITY ns_flows "http://ns.adobe.com/Flows/1.0/">
]>
<svg version="1.1"
	 xmlns="http://www.w3.org/2000/svg" xmlns:xlink="http://www.w3.org/1999/xlink" xmlns:a="http://ns.adobe.com/AdobeSVGViewerExtensions/3.0/"
	 x="0px" y="0px" width="100px" height="100px" viewBox="0 0 100 100" overflow="visible" enable-background="new 0 0 100 100"
	 xml:space="preserve">
<defs>
</defs>
<g>
	<polygon fill="#C49A6C" points="0.619,0.25 99.381,0.25 50,47.91 	"/>
	<path d="M98.762,0.5L50,47.562L1.238,0.5H98.762 M100,0H0l50,48.257L100,0L100,0z"/>
</g>
<g>
	<polygon fill="#8C6339" points="50.354,48.264 99.75,0.589 99.75,99.382 	"/>
	<path d="M99.5,1.177v97.585L50.707,48.27L99.5,1.177 M100,0L50,48.257L100,100V0L100,0z"/>
</g>
<g>
	<polygon fill="#603916" points="0.589,99.75 50,48.617 99.411,99.75 	"/>
	<path d="M50,48.977L98.821,99.5H1.179L50,48.977 M50,48.257L0,100h100L50,48.257L50,48.257z"/>
</g>
<g>
	<polygon fill="#A67D52" points="0.25,0.589 49.646,48.264 0.25,99.382 	"/>
	<path d="M0.5,1.177L49.293,48.27L0.5,98.763V1.177 M0,0v100l50-51.743L0,0L0,0z"/>
</g>
<g display="none">
	<path display="inline" fill="#231F20" d="M98,2v96H2V2H98 M100,0H0v100h100V0L100,0z"/>
</g>
</svg>
